<svg width="30" height="30" viewBox="0 0 30 30" fill="none" xmlns="http://www.w3.org/2000/svg">
<path d="M15 0.511963C6.7125 0.511963 2.18932e-06 7.22446 2.18932e-06 15.512C-0.00169914 18.6609 0.988222 21.7304 2.82933 24.285C4.67043 26.8396 7.26922 28.7496 10.257 29.744C11.007 29.8745 11.2875 29.4245 11.2875 29.03C11.2875 28.6745 11.268 27.494 11.268 26.237C7.5 26.9315 6.525 25.319 6.225 24.4745C6.0555 24.0425 5.325 22.712 4.6875 22.355C4.1625 22.0745 3.4125 21.38 4.668 21.362C5.85 21.3425 6.693 22.4495 6.975 22.8995C8.325 25.1675 10.482 24.53 11.343 24.137C11.475 23.162 11.868 22.5065 12.3 22.1315C8.9625 21.7565 5.475 20.462 5.475 14.7245C5.475 13.0925 6.0555 11.744 7.0125 10.6925C6.8625 10.3175 6.3375 8.77996 7.1625 6.71746C7.1625 6.71746 8.418 6.32446 11.2875 8.25646C12.5086 7.91755 13.7703 7.74698 15.0375 7.74946C16.3125 7.74946 17.5875 7.91746 18.7875 8.25496C21.6555 6.30496 22.9125 6.71896 22.9125 6.71896C23.7375 8.78146 23.2125 10.319 23.0625 10.694C24.018 11.744 24.6 13.0745 24.6 14.7245C24.6 20.4815 21.0945 21.7565 17.757 22.1315C18.3 22.5995 18.7695 23.4995 18.7695 24.9065C18.7695 26.912 18.75 28.5245 18.75 29.0315C18.75 29.4245 19.032 29.8925 19.782 29.7425C22.7595 28.7372 25.3469 26.8235 27.1799 24.2707C29.0128 21.7179 29.9991 18.6546 30 15.512C30 7.22446 23.2875 0.511963 15 0.511963Z" fill="white"/>
</svg>
