<svg width="60" height="60" viewBox="0 0 60 60" fill="none" xmlns="http://www.w3.org/2000/svg">
<g clip-path="url(#clip0_85469_669)">
<path d="M7.9 9.7998V50.2998C3 44.8998 0 37.7998 0 29.9998C0 22.1998 3 15.0998 7.9 9.7998Z" fill="white"/>
<path d="M11.1 14.2002L28.4 48.9002H11.1V14.2002Z" fill="white"/>
<path d="M30 44.9996L13 11.0996H47L30 44.9996Z" fill="white"/>
<path d="M30 0C37.8 0 44.9001 3 50.2001 7.9H9.80005C15.1 3 22.2 0 30 0Z" fill="white"/>
<path d="M48.9 48.9002H31.6L48.9 14.2002V48.9002Z" fill="white"/>
<path d="M50.2001 52.0996C44.9001 56.9996 37.8 59.9996 30 59.9996C22.2 59.9996 15.1 56.9996 9.80005 52.0996H50.2001Z" fill="white"/>
<path d="M52.1 50.1998V9.7998C57 15.0998 60 22.1998 60 29.9998C60 37.7998 57 44.8998 52.1 50.1998Z" fill="white"/>
<path d="M11.1 14.1992L28.4 48.8992H11.1V14.1992Z" fill="white"/>
<path d="M30 44.9996L13 11.0996H47L30 44.9996Z" fill="white"/>
<path d="M31.6 48.8992L48.9 14.1992V48.8992H31.6Z" fill="white"/>
<path d="M13 11.0996H47L30 44.9996L13 11.0996Z" fill="white"/>
</g>
<defs>
<clipPath id="clip0_85469_669">
<rect width="60" height="60" fill="white"/>
</clipPath>
</defs>
</svg>
